<svg width="24" height="24" xmlns="http://www.w3.org/2000/svg"><g fill="none" fill-rule="evenodd"><path d="M0 24.15h24v-24H0z"/><path d="M17.28 13.186a5.342 5.342 0 01-3.63 1.413c-2.664 0-4.884-1.913-5.277-4.496h10.556a5.274 5.274 0 01-1.65 3.083zm-2.365-8.878c2.173.584 3.796 2.622 4.042 5.1h-5.225l1.183-5.1zm3.63 12.171c0 .766-.627 1.39-1.398 1.39a1.395 1.395 0 01-1.399-1.39c0-.766.628-1.389 1.399-1.389s1.399.623 1.399 1.39zm-8.358 1.346a1.352 1.352 0 01-1.355-1.346c0-.742.608-1.345 1.355-1.345s1.355.603 1.355 1.345-.608 1.346-1.355 1.346zM5.385 7.46a.277.277 0 01-.278-.275c0-.152.125-.276.278-.276.153 0 .277.124.277.276a.277.277 0 01-.277.275zm14.284 2.324a.34.34 0 00-.015-.129.343.343 0 00.015-.127c-.218-2.992-2.253-5.45-4.949-5.978a.35.35 0 00-.408.263l-1.297 5.596H8.316c-.06-.759-.282-1.35-.66-1.762-.303-.33-.715-.55-1.227-.662a1.063 1.063 0 00-1.044-.857c-.587 0-1.064.474-1.064 1.057a1.065 1.065 0 002.006.49c.345.082.618.229.812.44.31.336.475.876.494 1.604a.336.336 0 000 .07l.002.067c0 .032.004.062.013.092a5.966 5.966 0 002.778 4.418 2.137 2.137 0 00-2.38 2.113c0 1.173.96 2.127 2.14 2.127 1.182 0 2.142-.954 2.142-2.127 0-.59-.242-1.123-.634-1.509a6.079 6.079 0 004.071-.056 2.073 2.073 0 00-.716 1.565c0 1.149.941 2.084 2.098 2.084a2.093 2.093 0 002.098-2.084 2.093 2.093 0 00-2.474-2.049c.35-.21.68-.454.984-.735a5.96 5.96 0 001.914-3.911z" fill="#53605E"/></g></svg>